<svg version="1.1" id="Layer_1" xmlns="http://www.w3.org/2000/svg" xmlns:xlink="http://www.w3.org/1999/xlink" x="0px" y="0px"
	 width="100%" viewBox="0 0 141 75" enable-background="new 0 0 141 75" xml:space="preserve">
<path fill="#000000" opacity="1.000000" stroke="none" 
	d="
M110.000000,76.000000 
	C73.333336,76.000000 37.166668,76.000000 1.000000,76.000000 
	C1.000000,51.000000 1.000000,26.000000 1.000000,1.000000 
	C48.000000,1.000000 95.000000,1.000000 142.000000,1.000000 
	C142.000000,26.000000 142.000000,51.000000 142.000000,76.000000 
	C131.500000,76.000000 121.000000,76.000000 110.000000,76.000000 
M91.641418,68.041542 
	C96.075066,68.365524 100.597656,69.417511 104.927086,68.888542 
	C124.560844,66.489670 137.880280,43.870544 126.455940,24.990644 
	C115.170723,6.340678 89.574348,4.834321 76.772316,20.607170 
	C71.415627,27.206924 68.698555,43.250069 72.287186,50.860668 
	C76.183479,59.123768 82.181862,64.937317 91.641418,68.041542 
M61.088970,26.476448 
	C55.882393,19.285187 50.071075,14.201998 40.020721,14.159446 
	C29.591000,14.115288 21.741528,17.431150 16.543879,26.103178 
	C11.606660,34.340687 11.511592,43.157867 15.952833,51.790478 
	C20.482895,60.595726 30.626682,67.140038 43.877613,64.925774 
	C61.705166,61.946751 71.385910,41.819794 61.088970,26.476448 
z"/>
<path fill="#F7313F" opacity="1.000000" stroke="none" 
	d="
M91.231400,68.010201 
	C82.181862,64.937317 76.183479,59.123768 72.287186,50.860668 
	C68.698555,43.250069 71.415627,27.206924 76.772316,20.607170 
	C89.574348,4.834321 115.170723,6.340678 126.455940,24.990644 
	C137.880280,43.870544 124.560844,66.489670 104.927086,68.888542 
	C100.597656,69.417511 96.075066,68.365524 91.231400,68.010201 
M110.479034,24.892815 
	C103.389969,19.683641 92.703964,21.051752 86.507538,27.961845 
	C80.800255,34.326454 80.874741,45.927227 86.663086,52.183716 
	C93.393242,59.458202 105.759148,59.825527 112.695778,52.751202 
	C120.606049,44.683887 119.938538,30.181911 110.479034,24.892815 
z"/>
<path fill="#F7313F" opacity="1.000000" stroke="none" 
	d="
M61.330734,26.764057 
	C71.385910,41.819794 61.705166,61.946751 43.877613,64.925774 
	C30.626682,67.140038 20.482895,60.595726 15.952833,51.790478 
	C11.511592,43.157867 11.606660,34.340687 16.543879,26.103178 
	C21.741528,17.431150 29.591000,14.115288 40.020721,14.159446 
	C50.071075,14.201998 55.882393,19.285187 61.330734,26.764057 
M33.698067,52.926212 
	C40.661339,55.755821 49.553665,51.991280 52.568027,44.937679 
	C55.515541,38.040466 51.989128,29.897966 45.111465,26.502485 
	C37.385612,22.688257 29.093117,27.521441 26.222460,33.680122 
	C23.440611,39.648277 24.684845,49.612831 33.698067,52.926212 
z"/>
<path fill="#000000" opacity="1.000000" stroke="none" 
	d="
M110.851395,24.978580 
	C119.938538,30.181911 120.606049,44.683887 112.695778,52.751202 
	C105.759148,59.825527 93.393242,59.458202 86.663086,52.183716 
	C80.874741,45.927227 80.800255,34.326454 86.507538,27.961845 
	C92.703964,21.051752 103.389969,19.683641 110.851395,24.978580 
z"/>
<path fill="#000000" opacity="1.000000" stroke="none" 
	d="
M33.373142,52.724159 
	C24.684845,49.612831 23.440611,39.648277 26.222460,33.680122 
	C29.093117,27.521441 37.385612,22.688257 45.111465,26.502485 
	C51.989128,29.897966 55.515541,38.040466 52.568027,44.937679 
	C49.553665,51.991280 40.661339,55.755821 33.373142,52.724159 
z"/>
</svg>